[libx264 @ 0xaaab05600cf0] using cpu capabilities: ARMv8 NEON
[libx264 @ 0xaaab05600cf0] profile High, level 3.0
[libx264 @ 0xaaab05600cf0] 264 - core 155 r2917 0a84d98 - H.264/MPEG-4 AVC codec - Copyleft 2003-2018 - http://www.videolan.org/x264.html - options: cabac=1 ref=3 deblock=1:0:0 analyse=0x3:0x113 me=hex subme=7 psy=1 psy_rd=1.00:0.00 mixed_ref=1 me_range=16 chroma_me=1 trellis=1 8x8dct=1 cqm=0 deadzone=21,11 fast_pskip=1 chroma_qp_offset=-2 threads=6 lookahead_threads=1 sliced_threads=0 nr=0 decimate=1 interlaced=0 bluray_compat=0 constrained_intra=0 bframes=3 b_pyramid=2 b_adapt=1 b_bias=0 direct=1 weightb=1 open_gop=0 weightp=2 keyint=12 keyint_min=1 scenecut=40 intra_refresh=0 rc_lookahead=12 rc=abr mbtree=1 bitrate=400 ratetol=1.0 qcomp=0.60 qpmin=0 qpmax=69 qpstep=4 ip_ratio=1.40 aq=1:1.00
Output #0, mp4, to '02.mp4':
    Stream #0:0: Video: h264, yuv420p, 640x480, q=2-31, 400 kb/s, 25 tbn
pts:0 pts_time:0 dts:-1024 dts_time:-0.08 duration:0 duration_time:0 stream_index:0
pts:512 pts_time:0.04 dts:-512 dts_time:-0.04 duration:0 duration_time:0 stream_index:0
pts:1536 pts_time:0.12 dts:0 dts_time:0 duration:0 duration_time:0 stream_index:0
pts:1024 pts_time:0.08 dts:512 dts_time:0.04 duration:0 duration_time:0 stream_index:0
pts:3584 pts_time:0.28 dts:1024 dts_time:0.08 duration:0 duration_time:0 stream_index:0
pts:2560 pts_time:0.2 dts:1536 dts_time:0.12 duration:0 duration_time:0 stream_index:0
pts:2048 pts_time:0.16 dts:2048 dts_time:0.16 duration:0 duration_time:0 stream_index:0
pts:3072 pts_time:0.24 dts:2560 dts_time:0.2 duration:0 duration_time:0 stream_index:0
pts:5632 pts_time:0.44 dts:3072 dts_time:0.24 duration:0 duration_time:0 stream_index:0
pts:4608 pts_time:0.36 dts:3584 dts_time:0.28 duration:0 duration_time:0 stream_index:0
pts:4096 pts_time:0.32 dts:4096 dts_time:0.32 duration:0 duration_time:0 stream_index:0
pts:5120 pts_time:0.4 dts:4608 dts_time:0.36 duration:0 duration_time:0 stream_index:0
pts:6144 pts_time:0.48 dts:5120 dts_time:0.4 duration:0 duration_time:0 stream_index:0
pts:6656 pts_time:0.52 dts:5632 dts_time:0.44 duration:0 duration_time:0 stream_index:0
pts:8192 pts_time:0.64 dts:6144 dts_time:0.48 duration:0 duration_time:0 stream_index:0
pts:7168 pts_time:0.56 dts:6656 dts_time:0.52 duration:0 duration_time:0 stream_index:0
pts:7680 pts_time:0.6 dts:7168 dts_time:0.56 duration:0 duration_time:0 stream_index:0
pts:9216 pts_time:0.72 dts:7680 dts_time:0.6 duration:0 duration_time:0 stream_index:0
pts:8704 pts_time:0.68 dts:8192 dts_time:0.64 duration:0 duration_time:0 stream_index:0
pts:10240 pts_time:0.8 dts:8704 dts_time:0.68 duration:0 duration_time:0 stream_index:0
pts:9728 pts_time:0.76 dts:9216 dts_time:0.72 duration:0 duration_time:0 stream_index:0
pts:11264 pts_time:0.88 dts:9728 dts_time:0.76 duration:0 duration_time:0 stream_index:0
pts:10752 pts_time:0.84 dts:10240 dts_time:0.8 duration:0 duration_time:0 stream_index:0
pts:11776 pts_time:0.92 dts:10752 dts_time:0.84 duration:0 duration_time:0 stream_index:0
pts:12288 pts_time:0.96 dts:11264 dts_time:0.88 duration:0 duration_time:0 stream_index:0
pts:12800 pts_time:1 dts:11776 dts_time:0.92 duration:0 duration_time:0 stream_index:0
pts:13312 pts_time:1.04 dts:12288 dts_time:0.96 duration:0 duration_time:0 stream_index:0
pts:13824 pts_time:1.08 dts:12800 dts_time:1 duration:0 duration_time:0 stream_index:0
pts:14336 pts_time:1.12 dts:13312 dts_time:1.04 duration:0 duration_time:0 stream_index:0
pts:14848 pts_time:1.16 dts:13824 dts_time:1.08 duration:0 duration_time:0 stream_index:0
pts:15360 pts_time:1.2 dts:14336 dts_time:1.12 duration:0 duration_time:0 stream_index:0
pts:15872 pts_time:1.24 dts:14848 dts_time:1.16 duration:0 duration_time:0 stream_index:0
pts:16384 pts_time:1.28 dts:15360 dts_time:1.2 duration:0 duration_time:0 stream_index:0
pts:16896 pts_time:1.32 dts:15872 dts_time:1.24 duration:0 duration_time:0 stream_index:0
pts:17920 pts_time:1.4 dts:16384 dts_time:1.28 duration:0 duration_time:0 stream_index:0
pts:17408 pts_time:1.36 dts:16896 dts_time:1.32 duration:0 duration_time:0 stream_index:0
pts:18432 pts_time:1.44 dts:17408 dts_time:1.36 duration:0 duration_time:0 stream_index:0
pts:19456 pts_time:1.52 dts:17920 dts_time:1.4 duration:0 duration_time:0 stream_index:0
pts:18944 pts_time:1.48 dts:18432 dts_time:1.44 duration:0 duration_time:0 stream_index:0
pts:20992 pts_time:1.64 dts:18944 dts_time:1.48 duration:0 duration_time:0 stream_index:0
pts:19968 pts_time:1.56 dts:19456 dts_time:1.52 duration:0 duration_time:0 stream_index:0
pts:20480 pts_time:1.6 dts:19968 dts_time:1.56 duration:0 duration_time:0 stream_index:0
pts:21504 pts_time:1.68 dts:20480 dts_time:1.6 duration:0 duration_time:0 stream_index:0
pts:22016 pts_time:1.72 dts:20992 dts_time:1.64 duration:0 duration_time:0 stream_index:0
pts:22528 pts_time:1.76 dts:21504 dts_time:1.68 duration:0 duration_time:0 stream_index:0
pts:23040 pts_time:1.8 dts:22016 dts_time:1.72 duration:0 duration_time:0 stream_index:0
pts:23552 pts_time:1.84 dts:22528 dts_time:1.76 duration:0 duration_time:0 stream_index:0
pts:24064 pts_time:1.88 dts:23040 dts_time:1.8 duration:0 duration_time:0 stream_index:0
pts:24576 pts_time:1.92 dts:23552 dts_time:1.84 duration:0 duration_time:0 stream_index:0
pts:26624 pts_time:2.08 dts:24064 dts_time:1.88 duration:0 duration_time:0 stream_index:0
pts:25600 pts_time:2 dts:24576 dts_time:1.92 duration:0 duration_time:0 stream_index:0
pts:25088 pts_time:1.96 dts:25088 dts_time:1.96 duration:0 duration_time:0 stream_index:0
pts:26112 pts_time:2.04 dts:25600 dts_time:2 duration:0 duration_time:0 stream_index:0
pts:28672 pts_time:2.24 dts:26112 dts_time:2.04 duration:0 duration_time:0 stream_index:0
pts:27648 pts_time:2.16 dts:26624 dts_time:2.08 duration:0 duration_time:0 stream_index:0
pts:27136 pts_time:2.12 dts:27136 dts_time:2.12 duration:0 duration_time:0 stream_index:0
pts:28160 pts_time:2.2 dts:27648 dts_time:2.16 duration:0 duration_time:0 stream_index:0
pts:29184 pts_time:2.28 dts:28160 dts_time:2.2 duration:0 duration_time:0 stream_index:0
pts:30208 pts_time:2.36 dts:28672 dts_time:2.24 duration:0 duration_time:0 stream_index:0
pts:29696 pts_time:2.32 dts:29184 dts_time:2.28 duration:0 duration_time:0 stream_index:0
pts:30720 pts_time:2.4 dts:29696 dts_time:2.32 duration:0 duration_time:0 stream_index:0
pts:32768 pts_time:2.56 dts:30208 dts_time:2.36 duration:0 duration_time:0 stream_index:0
pts:31744 pts_time:2.48 dts:30720 dts_time:2.4 duration:0 duration_time:0 stream_index:0
pts:31232 pts_time:2.44 dts:31232 dts_time:2.44 duration:0 duration_time:0 stream_index:0
pts:32256 pts_time:2.52 dts:31744 dts_time:2.48 duration:0 duration_time:0 stream_index:0
pts:33792 pts_time:2.64 dts:32256 dts_time:2.52 duration:0 duration_time:0 stream_index:0
pts:33280 pts_time:2.6 dts:32768 dts_time:2.56 duration:0 duration_time:0 stream_index:0
pts:35840 pts_time:2.8 dts:33280 dts_time:2.6 duration:0 duration_time:0 stream_index:0
pts:34816 pts_time:2.72 dts:33792 dts_time:2.64 duration:0 duration_time:0 stream_index:0
pts:34304 pts_time:2.68 dts:34304 dts_time:2.68 duration:0 duration_time:0 stream_index:0
pts:35328 pts_time:2.76 dts:34816 dts_time:2.72 duration:0 duration_time:0 stream_index:0
pts:36352 pts_time:2.84 dts:35328 dts_time:2.76 duration:0 duration_time:0 stream_index:0
pts:36864 pts_time:2.88 dts:35840 dts_time:2.8 duration:0 duration_time:0 stream_index:0
pts:38912 pts_time:3.04 dts:36352 dts_time:2.84 duration:0 duration_time:0 stream_index:0
pts:37888 pts_time:2.96 dts:36864 dts_time:2.88 duration:0 duration_time:0 stream_index:0
pts:37376 pts_time:2.92 dts:37376 dts_time:2.92 duration:0 duration_time:0 stream_index:0
pts:38400 pts_time:3 dts:37888 dts_time:2.96 duration:0 duration_time:0 stream_index:0
pts:40960 pts_time:3.2 dts:38400 dts_time:3 duration:0 duration_time:0 stream_index:0
pts:39936 pts_time:3.12 dts:38912 dts_time:3.04 duration:0 duration_time:0 stream_index:0
pts:39424 pts_time:3.08 dts:39424 dts_time:3.08 duration:0 duration_time:0 stream_index:0
pts:40448 pts_time:3.16 dts:39936 dts_time:3.12 duration:0 duration_time:0 stream_index:0
pts:42496 pts_time:3.32 dts:40448 dts_time:3.16 duration:0 duration_time:0 stream_index:0
pts:41472 pts_time:3.24 dts:40960 dts_time:3.2 duration:0 duration_time:0 stream_index:0
pts:41984 pts_time:3.28 dts:41472 dts_time:3.24 duration:0 duration_time:0 stream_index:0
pts:43008 pts_time:3.36 dts:41984 dts_time:3.28 duration:0 duration_time:0 stream_index:0
pts:45056 pts_time:3.52 dts:42496 dts_time:3.32 duration:0 duration_time:0 stream_index:0
pts:44032 pts_time:3.44 dts:43008 dts_time:3.36 duration:0 duration_time:0 stream_index:0
pts:43520 pts_time:3.4 dts:43520 dts_time:3.4 duration:0 duration_time:0 stream_index:0
pts:44544 pts_time:3.48 dts:44032 dts_time:3.44 duration:0 duration_time:0 stream_index:0
pts:46592 pts_time:3.64 dts:44544 dts_time:3.48 duration:0 duration_time:0 stream_index:0
pts:45568 pts_time:3.56 dts:45056 dts_time:3.52 duration:0 duration_time:0 stream_index:0
pts:46080 pts_time:3.6 dts:45568 dts_time:3.56 duration:0 duration_time:0 stream_index:0
pts:48640 pts_time:3.8 dts:46080 dts_time:3.6 duration:0 duration_time:0 stream_index:0
pts:47616 pts_time:3.72 dts:46592 dts_time:3.64 duration:0 duration_time:0 stream_index:0
pts:47104 pts_time:3.68 dts:47104 dts_time:3.68 duration:0 duration_time:0 stream_index:0
pts:48128 pts_time:3.76 dts:47616 dts_time:3.72 duration:0 duration_time:0 stream_index:0
pts:49152 pts_time:3.84 dts:48128 dts_time:3.76 duration:0 duration_time:0 stream_index:0
pts:51200 pts_time:4 dts:48640 dts_time:3.8 duration:0 duration_time:0 stream_index:0
pts:50176 pts_time:3.92 dts:49152 dts_time:3.84 duration:0 duration_time:0 stream_index:0
pts:49664 pts_time:3.88 dts:49664 dts_time:3.88 duration:0 duration_time:0 stream_index:0
pts:50688 pts_time:3.96 dts:50176 dts_time:3.92 duration:0 duration_time:0 stream_index:0
pts:51712 pts_time:4.04 dts:50688 dts_time:3.96 duration:0 duration_time:0 stream_index:0
pts:52224 pts_time:4.08 dts:51200 dts_time:4 duration:0 duration_time:0 stream_index:0
pts:54272 pts_time:4.24 dts:51712 dts_time:4.04 duration:0 duration_time:0 stream_index:0
pts:53248 pts_time:4.16 dts:52224 dts_time:4.08 duration:0 duration_time:0 stream_index:0
pts:52736 pts_time:4.12 dts:52736 dts_time:4.12 duration:0 duration_time:0 stream_index:0
pts:53760 pts_time:4.2 dts:53248 dts_time:4.16 duration:0 duration_time:0 stream_index:0
pts:54784 pts_time:4.28 dts:53760 dts_time:4.2 duration:0 duration_time:0 stream_index:0
pts:55808 pts_time:4.36 dts:54272 dts_time:4.24 duration:0 duration_time:0 stream_index:0
pts:55296 pts_time:4.32 dts:54784 dts_time:4.28 duration:0 duration_time:0 stream_index:0
pts:56832 pts_time:4.44 dts:55296 dts_time:4.32 duration:0 duration_time:0 stream_index:0
pts:56320 pts_time:4.4 dts:55808 dts_time:4.36 duration:0 duration_time:0 stream_index:0
pts:57344 pts_time:4.48 dts:56320 dts_time:4.4 duration:0 duration_time:0 stream_index:0
pts:57856 pts_time:4.52 dts:56832 dts_time:4.44 duration:0 duration_time:0 stream_index:0
pts:59904 pts_time:4.68 dts:57344 dts_time:4.48 duration:0 duration_time:0 stream_index:0
pts:58880 pts_time:4.6 dts:57856 dts_time:4.52 duration:0 duration_time:0 stream_index:0
pts:58368 pts_time:4.56 dts:58368 dts_time:4.56 duration:0 duration_time:0 stream_index:0
pts:59392 pts_time:4.64 dts:58880 dts_time:4.6 duration:0 duration_time:0 stream_index:0
pts:60416 pts_time:4.72 dts:59392 dts_time:4.64 duration:0 duration_time:0 stream_index:0
pts:60928 pts_time:4.76 dts:59904 dts_time:4.68 duration:0 duration_time:0 stream_index:0
pts:61952 pts_time:4.84 dts:60416 dts_time:4.72 duration:0 duration_time:0 stream_index:0
pts:61440 pts_time:4.8 dts:60928 dts_time:4.76 duration:0 duration_time:0 stream_index:0
pts:62976 pts_time:4.92 dts:61440 dts_time:4.8 duration:0 duration_time:0 stream_index:0
pts:62464 pts_time:4.88 dts:61952 dts_time:4.84 duration:0 duration_time:0 stream_index:0
pts:63488 pts_time:4.96 dts:62464 dts_time:4.88 duration:0 duration_time:0 stream_index:0
pts:64000 pts_time:5 dts:62976 dts_time:4.92 duration:0 duration_time:0 stream_index:0
pts:65024 pts_time:5.08 dts:63488 dts_time:4.96 duration:0 duration_time:0 stream_index:0
pts:64512 pts_time:5.04 dts:64000 dts_time:5 duration:0 duration_time:0 stream_index:0
pts:65536 pts_time:5.12 dts:64512 dts_time:5.04 duration:0 duration_time:0 stream_index:0
pts:66048 pts_time:5.16 dts:65024 dts_time:5.08 duration:0 duration_time:0 stream_index:0
pts:68096 pts_time:5.32 dts:65536 dts_time:5.12 duration:0 duration_time:0 stream_index:0
pts:67072 pts_time:5.24 dts:66048 dts_time:5.16 duration:0 duration_time:0 stream_index:0
pts:66560 pts_time:5.2 dts:66560 dts_time:5.2 duration:0 duration_time:0 stream_index:0
pts:67584 pts_time:5.28 dts:67072 dts_time:5.24 duration:0 duration_time:0 stream_index:0
pts:69632 pts_time:5.44 dts:67584 dts_time:5.28 duration:0 duration_time:0 stream_index:0
pts:68608 pts_time:5.36 dts:68096 dts_time:5.32 duration:0 duration_time:0 stream_index:0
pts:69120 pts_time:5.4 dts:68608 dts_time:5.36 duration:0 duration_time:0 stream_index:0
pts:70144 pts_time:5.48 dts:69120 dts_time:5.4 duration:0 duration_time:0 stream_index:0
pts:70656 pts_time:5.52 dts:69632 dts_time:5.44 duration:0 duration_time:0 stream_index:0
pts:71168 pts_time:5.56 dts:70144 dts_time:5.48 duration:0 duration_time:0 stream_index:0
pts:71680 pts_time:5.6 dts:70656 dts_time:5.52 duration:0 duration_time:0 stream_index:0
pts:72192 pts_time:5.64 dts:71168 dts_time:5.56 duration:0 duration_time:0 stream_index:0
pts:72704 pts_time:5.68 dts:71680 dts_time:5.6 duration:0 duration_time:0 stream_index:0
pts:74240 pts_time:5.8 dts:72192 dts_time:5.64 duration:0 duration_time:0 stream_index:0
pts:73216 pts_time:5.72 dts:72704 dts_time:5.68 duration:0 duration_time:0 stream_index:0
pts:73728 pts_time:5.76 dts:73216 dts_time:5.72 duration:0 duration_time:0 stream_index:0
pts:75776 pts_time:5.92 dts:73728 dts_time:5.76 duration:0 duration_time:0 stream_index:0
pts:74752 pts_time:5.84 dts:74240 dts_time:5.8 duration:0 duration_time:0 stream_index:0
pts:75264 pts_time:5.88 dts:74752 dts_time:5.84 duration:0 duration_time:0 stream_index:0
pts:76288 pts_time:5.96 dts:75264 dts_time:5.88 duration:0 duration_time:0 stream_index:0
pts:78336 pts_time:6.12 dts:75776 dts_time:5.92 duration:0 duration_time:0 stream_index:0
pts:77312 pts_time:6.04 dts:76288 dts_time:5.96 duration:0 duration_time:0 stream_index:0
pts:76800 pts_time:6 dts:76800 dts_time:6 duration:0 duration_time:0 stream_index:0
pts:77824 pts_time:6.08 dts:77312 dts_time:6.04 duration:0 duration_time:0 stream_index:0
pts:80384 pts_time:6.28 dts:77824 dts_time:6.08 duration:0 duration_time:0 stream_index:0
pts:79360 pts_time:6.2 dts:78336 dts_time:6.12 duration:0 duration_time:0 stream_index:0
pts:78848 pts_time:6.16 dts:78848 dts_time:6.16 duration:0 duration_time:0 stream_index:0
pts:79872 pts_time:6.24 dts:79360 dts_time:6.2 duration:0 duration_time:0 stream_index:0
pts:81920 pts_time:6.4 dts:79872 dts_time:6.24 duration:0 duration_time:0 stream_index:0
pts:80896 pts_time:6.32 dts:80384 dts_time:6.28 duration:0 duration_time:0 stream_index:0
pts:81408 pts_time:6.36 dts:80896 dts_time:6.32 duration:0 duration_time:0 stream_index:0
pts:82432 pts_time:6.44 dts:81408 dts_time:6.36 duration:0 duration_time:0 stream_index:0
pts:83456 pts_time:6.52 dts:81920 dts_time:6.4 duration:0 duration_time:0 stream_index:0
pts:82944 pts_time:6.48 dts:82432 dts_time:6.44 duration:0 duration_time:0 stream_index:0
pts:84480 pts_time:6.6 dts:82944 dts_time:6.48 duration:0 duration_time:0 stream_index:0
pts:83968 pts_time:6.56 dts:83456 dts_time:6.52 duration:0 duration_time:0 stream_index:0
pts:86528 pts_time:6.76 dts:83968 dts_time:6.56 duration:0 duration_time:0 stream_index:0
pts:85504 pts_time:6.68 dts:84480 dts_time:6.6 duration:0 duration_time:0 stream_index:0
pts:84992 pts_time:6.64 dts:84992 dts_time:6.64 duration:0 duration_time:0 stream_index:0
pts:86016 pts_time:6.72 dts:85504 dts_time:6.68 duration:0 duration_time:0 stream_index:0
pts:88064 pts_time:6.88 dts:86016 dts_time:6.72 duration:0 duration_time:0 stream_index:0
pts:87040 pts_time:6.8 dts:86528 dts_time:6.76 duration:0 duration_time:0 stream_index:0
pts:87552 pts_time:6.84 dts:87040 dts_time:6.8 duration:0 duration_time:0 stream_index:0
pts:88576 pts_time:6.92 dts:87552 dts_time:6.84 duration:0 duration_time:0 stream_index:0
pts:89600 pts_time:7 dts:88064 dts_time:6.88 duration:0 duration_time:0 stream_index:0
pts:89088 pts_time:6.96 dts:88576 dts_time:6.92 duration:0 duration_time:0 stream_index:0
pts:91136 pts_time:7.12 dts:89088 dts_time:6.96 duration:0 duration_time:0 stream_index:0
pts:90112 pts_time:7.04 dts:89600 dts_time:7 duration:0 duration_time:0 stream_index:0
pts:90624 pts_time:7.08 dts:90112 dts_time:7.04 duration:0 duration_time:0 stream_index:0
pts:91648 pts_time:7.16 dts:90624 dts_time:7.08 duration:0 duration_time:0 stream_index:0
pts:92672 pts_time:7.24 dts:91136 dts_time:7.12 duration:0 duration_time:0 stream_index:0
pts:92160 pts_time:7.2 dts:91648 dts_time:7.16 duration:0 duration_time:0 stream_index:0
pts:93696 pts_time:7.32 dts:92160 dts_time:7.2 duration:0 duration_time:0 stream_index:0
pts:93184 pts_time:7.28 dts:92672 dts_time:7.24 duration:0 duration_time:0 stream_index:0
pts:94208 pts_time:7.36 dts:93184 dts_time:7.28 duration:0 duration_time:0 stream_index:0
pts:94720 pts_time:7.4 dts:93696 dts_time:7.32 duration:0 duration_time:0 stream_index:0
pts:95232 pts_time:7.44 dts:94208 dts_time:7.36 duration:0 duration_time:0 stream_index:0
pts:95744 pts_time:7.48 dts:94720 dts_time:7.4 duration:0 duration_time:0 stream_index:0
pts:96256 pts_time:7.52 dts:95232 dts_time:7.44 duration:0 duration_time:0 stream_index:0
pts:96768 pts_time:7.56 dts:95744 dts_time:7.48 duration:0 duration_time:0 stream_index:0
pts:98816 pts_time:7.72 dts:96256 dts_time:7.52 duration:0 duration_time:0 stream_index:0
pts:97792 pts_time:7.64 dts:96768 dts_time:7.56 duration:0 duration_time:0 stream_index:0
pts:97280 pts_time:7.6 dts:97280 dts_time:7.6 duration:0 duration_time:0 stream_index:0
pts:98304 pts_time:7.68 dts:97792 dts_time:7.64 duration:0 duration_time:0 stream_index:0
pts:99840 pts_time:7.8 dts:98304 dts_time:7.68 duration:0 duration_time:0 stream_index:0
pts:99328 pts_time:7.76 dts:98816 dts_time:7.72 duration:0 duration_time:0 stream_index:0
pts:100352 pts_time:7.84 dts:99328 dts_time:7.76 duration:0 duration_time:0 stream_index:0
pts:100864 pts_time:7.88 dts:99840 dts_time:7.8 duration:0 duration_time:0 stream_index:0
pts:101376 pts_time:7.92 dts:100352 dts_time:7.84 duration:0 duration_time:0 stream_index:0
pts:102400 pts_time:8 dts:100864 dts_time:7.88 duration:0 duration_time:0 stream_index:0
pts:101888 pts_time:7.96 dts:101376 dts_time:7.92 duration:0 duration_time:0 stream_index:0
pts:103424 pts_time:8.08 dts:101888 dts_time:7.96 duration:0 duration_time:0 stream_index:0
pts:102912 pts_time:8.04 dts:102400 dts_time:8 duration:0 duration_time:0 stream_index:0
pts:103936 pts_time:8.12 dts:102912 dts_time:8.04 duration:0 duration_time:0 stream_index:0
pts:104960 pts_time:8.2 dts:103424 dts_time:8.08 duration:0 duration_time:0 stream_index:0
pts:104448 pts_time:8.16 dts:103936 dts_time:8.12 duration:0 duration_time:0 stream_index:0
pts:105984 pts_time:8.28 dts:104448 dts_time:8.16 duration:0 duration_time:0 stream_index:0
pts:105472 pts_time:8.24 dts:104960 dts_time:8.2 duration:0 duration_time:0 stream_index:0
pts:106496 pts_time:8.32 dts:105472 dts_time:8.24 duration:0 duration_time:0 stream_index:0
pts:107008 pts_time:8.36 dts:105984 dts_time:8.28 duration:0 duration_time:0 stream_index:0
pts:108032 pts_time:8.44 dts:106496 dts_time:8.32 duration:0 duration_time:0 stream_index:0
pts:107520 pts_time:8.4 dts:107008 dts_time:8.36 duration:0 duration_time:0 stream_index:0
pts:108544 pts_time:8.48 dts:107520 dts_time:8.4 duration:0 duration_time:0 stream_index:0
pts:109056 pts_time:8.52 dts:108032 dts_time:8.44 duration:0 duration_time:0 stream_index:0
pts:109568 pts_time:8.56 dts:108544 dts_time:8.48 duration:0 duration_time:0 stream_index:0
pts:111104 pts_time:8.68 dts:109056 dts_time:8.52 duration:0 duration_time:0 stream_index:0
pts:110080 pts_time:8.6 dts:109568 dts_time:8.56 duration:0 duration_time:0 stream_index:0
pts:110592 pts_time:8.64 dts:110080 dts_time:8.6 duration:0 duration_time:0 stream_index:0
pts:112128 pts_time:8.76 dts:110592 dts_time:8.64 duration:0 duration_time:0 stream_index:0
pts:111616 pts_time:8.72 dts:111104 dts_time:8.68 duration:0 duration_time:0 stream_index:0
pts:112640 pts_time:8.8 dts:111616 dts_time:8.72 duration:0 duration_time:0 stream_index:0
pts:113152 pts_time:8.84 dts:112128 dts_time:8.76 duration:0 duration_time:0 stream_index:0
pts:114176 pts_time:8.92 dts:112640 dts_time:8.8 duration:0 duration_time:0 stream_index:0
pts:113664 pts_time:8.88 dts:113152 dts_time:8.84 duration:0 duration_time:0 stream_index:0
pts:114688 pts_time:8.96 dts:113664 dts_time:8.88 duration:0 duration_time:0 stream_index:0
pts:115712 pts_time:9.04 dts:114176 dts_time:8.92 duration:0 duration_time:0 stream_index:0
pts:115200 pts_time:9 dts:114688 dts_time:8.96 duration:0 duration_time:0 stream_index:0
pts:117248 pts_time:9.16 dts:115200 dts_time:9 duration:0 duration_time:0 stream_index:0
[libx264 @ 0xaaab05600cf0] frame I:22    Avg QP:25.27  size: 13928
[libx264 @ 0xaaab05600cf0] frame P:113   Avg QP:29.25  size:  2002
[libx264 @ 0xaaab05600cf0] frame B:116   Avg QP:35.15  size:   687
[libx264 @ 0xaaab05600cf0] consecutive B-frames: 28.3% 24.7% 16.7% 30.3%
[libx264 @ 0xaaab05600cf0] mb I  I16..4: 29.4% 52.2% 18.4%
[libx264 @ 0xaaab05600cf0] mb P  I16..4: 15.9%  4.0%  1.2%  P16..4: 33.3%  1.1%  1.6%  0.0%  0.0%    skip:42.8%
[libx264 @ 0xaaab05600cf0] mb B  I16..4:  0.0%  1.4%  0.0%  B16..8: 17.5%  0.0%  0.0%  direct: 7.8%  skip:73.3%  L0:74.5% L1:25.3% BI: 0.2%
[libx264 @ 0xaaab05600cf0] final ratefactor: 29.27
[libx264 @ 0xaaab05600cf0] 8x8 transform intra:37.1% inter:89.4%
[libx264 @ 0xaaab05600cf0] coded y,uvDC,uvAC intra: 43.8% 81.9% 28.9% inter: 2.6% 27.4% 2.4%
[libx264 @ 0xaaab05600cf0] i16 v,h,dc,p:  4%  7%  2% 87%
[libx264 @ 0xaaab05600cf0] i8 v,h,dc,ddl,ddr,vr,hd,vl,hu: 37% 17% 33%  4%  1%  1%  1%  3%  3%
[libx264 @ 0xaaab05600cf0] i4 v,h,dc,ddl,ddr,vr,hd,vl,hu: 55% 21% 13%  9%  0%  0%  0%  0%  1%
[libx264 @ 0xaaab05600cf0] i8c dc,h,v,p: 28% 34% 20% 18%
[libx264 @ 0xaaab05600cf0] Weighted P-Frames: Y:5.3% UV:2.7%
[libx264 @ 0xaaab05600cf0] ref P L0: 89.8%  6.2%  3.4%  0.5%  0.1%
[libx264 @ 0xaaab05600cf0] ref B L0: 97.6%  2.0%  0.4%
[libx264 @ 0xaaab05600cf0] ref B L1: 99.4%  0.6%
[libx264 @ 0xaaab05600cf0] kb/s:487.86
pts:116224 pts_time:9.08 dts:115712 dts_time:9.04 duration:0 duration_time:0 stream_index:0
pts:116736 pts_time:9.12 dts:116224 dts_time:9.08 duration:0 duration_time:0 stream_index:0
pts:118784 pts_time:9.28 dts:116736 dts_time:9.12 duration:0 duration_time:0 stream_index:0
pts:117760 pts_time:9.2 dts:117248 dts_time:9.16 duration:0 duration_time:0 stream_index:0
pts:118272 pts_time:9.24 dts:117760 dts_time:9.2 duration:0 duration_time:0 stream_index:0
pts:119296 pts_time:9.32 dts:118272 dts_time:9.24 duration:0 duration_time:0 stream_index:0
pts:120320 pts_time:9.4 dts:118784 dts_time:9.28 duration:0 duration_time:0 stream_index:0
pts:119808 pts_time:9.36 dts:119296 dts_time:9.32 duration:0 duration_time:0 stream_index:0
pts:121344 pts_time:9.48 dts:119808 dts_time:9.36 duration:0 duration_time:0 stream_index:0
pts:120832 pts_time:9.44 dts:120320 dts_time:9.4 duration:0 duration_time:0 stream_index:0
pts:123392 pts_time:9.64 dts:120832 dts_time:9.44 duration:0 duration_time:0 stream_index:0
pts:122368 pts_time:9.56 dts:121344 dts_time:9.48 duration:0 duration_time:0 stream_index:0
pts:121856 pts_time:9.52 dts:121856 dts_time:9.52 duration:0 duration_time:0 stream_index:0
pts:122880 pts_time:9.6 dts:122368 dts_time:9.56 duration:0 duration_time:0 stream_index:0
pts:124928 pts_time:9.76 dts:122880 dts_time:9.6 duration:0 duration_time:0 stream_index:0
pts:123904 pts_time:9.68 dts:123392 dts_time:9.64 duration:0 duration_time:0 stream_index:0
pts:124416 pts_time:9.72 dts:123904 dts_time:9.68 duration:0 duration_time:0 stream_index:0
pts:125440 pts_time:9.8 dts:124416 dts_time:9.72 duration:0 duration_time:0 stream_index:0
pts:126464 pts_time:9.88 dts:124928 dts_time:9.76 duration:0 duration_time:0 stream_index:0
pts:125952 pts_time:9.84 dts:125440 dts_time:9.8 duration:0 duration_time:0 stream_index:0
pts:127488 pts_time:9.96 dts:125952 dts_time:9.84 duration:0 duration_time:0 stream_index:0
pts:126976 pts_time:9.92 dts:126464 dts_time:9.88 duration:0 duration_time:0 stream_index:0
pts:128000 pts_time:10 dts:126976 dts_time:9.92 duration:0 duration_time:0 stream_index:0
